<?xml version="1.0" standalone="no"?>
<!DOCTYPE svg PUBLIC "-//W3C//DTD SVG 1.1//EN" 
  "http://www.w3.org/Graphics/SVG/1.1/DTD/svg11.dtd">
<svg width="128" height="128" viewBox="0 0 128 128"
     xmlns="http://www.w3.org/2000/svg" version="1.1">
<desc>'truck.blend', Cube, (Blender 2.79 (sub 0))</desc>
<polygon stroke="black" stroke-width="1" fill="rgb(204, 204, 204)" fill-opacity="0.25" points="52.000,56.000 69.000,56.000 73.000,48.000 73.000,30.000 69.000,22.000 52.000,22.000 " />
<polygon stroke="black" stroke-width="1" fill="rgb(204, 204, 204)" fill-opacity="0.25" points="48.000,88.000 48.000,62.000 65.000,62.000 70.000,79.000 70.000,88.000 " />
<polygon stroke="black" stroke-width="1" fill="rgb(204, 204, 204)" fill-opacity="0.25" points="122.000,125.000 122.000,115.000 120.000,114.000 120.000,123.000 " />
<polygon stroke="black" stroke-width="1" fill="rgb(204, 204, 204)" fill-opacity="0.25" points="48.000,62.000 48.000,88.000 70.000,88.000 70.000,79.000 65.000,62.000 " />
<polygon stroke="black" stroke-width="1" fill="rgb(204, 204, 204)" fill-opacity="0.25" points="116.000,65.000 107.000,65.000 107.000,84.000 116.000,84.000 " />
<polygon stroke="black" stroke-width="1" fill="rgb(204, 204, 204)" fill-opacity="0.25" points="107.000,84.000 107.000,65.000 89.000,65.000 89.000,84.000 " />
<polygon stroke="black" stroke-width="1" fill="rgb(204, 204, 204)" fill-opacity="0.25" points="89.000,84.000 89.000,65.000 80.000,65.000 80.000,84.000 " />
<polygon stroke="black" stroke-width="1" fill="rgb(204, 204, 204)" fill-opacity="0.25" points="122.000,115.000 122.000,97.000 120.000,98.000 120.000,114.000 " />
<polygon stroke="black" stroke-width="1" fill="rgb(204, 204, 204)" fill-opacity="0.25" points="111.000,98.000 111.000,115.000 113.000,114.000 113.000,98.000 " />
<polygon stroke="black" stroke-width="1" fill="rgb(204, 204, 204)" fill-opacity="0.25" points="56.000,124.000 56.000,114.000 4.000,114.000 4.000,124.000 " />
<polygon stroke="black" stroke-width="1" fill="rgb(204, 204, 204)" fill-opacity="0.25" points="43.000,52.000 47.000,43.000 4.000,43.000 8.000,52.000 " />
<polygon stroke="black" stroke-width="1" fill="rgb(204, 204, 204)" fill-opacity="0.25" points="4.000,124.000 4.000,114.000 56.000,114.000 56.000,124.000 " />
<polygon stroke="black" stroke-width="1" fill="rgb(204, 204, 204)" fill-opacity="0.25" points="43.000,88.000 47.000,79.000 43.000,58.000 8.000,58.000 4.000,79.000 8.000,88.000 " />
<polygon stroke="black" stroke-width="1" fill="rgb(204, 204, 204)" fill-opacity="0.25" points="104.000,89.000 60.000,89.000 60.000,124.000 104.000,124.000 " />
<polygon stroke="black" stroke-width="1" fill="rgb(204, 204, 204)" fill-opacity="0.25" points="4.000,114.000 56.000,114.000 48.000,92.000 4.000,92.000 " />
<polygon stroke="black" stroke-width="1" fill="rgb(204, 204, 204)" fill-opacity="0.25" points="56.000,114.000 4.000,114.000 4.000,92.000 48.000,92.000 " />
<polygon stroke="black" stroke-width="1" fill="rgb(204, 204, 204)" fill-opacity="0.25" points="4.000,43.000 47.000,43.000 43.000,20.000 8.000,20.000 " />
<polygon stroke="black" stroke-width="1" fill="rgb(204, 204, 204)" fill-opacity="0.25" points="88.000,4.000 88.000,11.000 109.000,11.000 109.000,4.000 " />
<polygon stroke="black" stroke-width="1" fill="rgb(204, 204, 204)" fill-opacity="0.25" points="9.000,10.000 4.000,4.000 84.000,4.000 84.000,10.000 " />
<polygon stroke="black" stroke-width="1" fill="rgb(204, 204, 204)" fill-opacity="0.25" points="119.000,25.000 124.000,25.000 124.000,4.000 119.000,4.000 " />
<polygon stroke="black" stroke-width="1" fill="rgb(204, 204, 204)" fill-opacity="0.25" points="84.000,10.000 84.000,4.000 4.000,4.000 9.000,10.000 " />
<polygon stroke="black" stroke-width="1" fill="rgb(204, 204, 204)" fill-opacity="0.25" points="125.000,78.000 125.000,73.000 120.000,73.000 120.000,78.000 " />
<polygon stroke="black" stroke-width="1" fill="rgb(204, 204, 204)" fill-opacity="0.25" points="125.000,78.000 125.000,73.000 120.000,73.000 120.000,78.000 " />
<polygon stroke="black" stroke-width="1" fill="rgb(204, 204, 204)" fill-opacity="0.25" points="82.000,46.000 80.000,47.000 76.000,55.000 76.000,58.000 79.000,60.000 124.000,60.000 127.000,58.000 127.000,55.000 123.000,47.000 121.000,46.000 " />
<polygon stroke="black" stroke-width="1" fill="rgb(204, 204, 204)" fill-opacity="0.25" points="125.000,78.000 125.000,73.000 120.000,73.000 120.000,78.000 " />
<polygon stroke="black" stroke-width="1" fill="rgb(204, 204, 204)" fill-opacity="0.25" points="125.000,78.000 125.000,73.000 120.000,73.000 120.000,78.000 " />
<polygon stroke="black" stroke-width="1" fill="rgb(204, 204, 204)" fill-opacity="0.25" points="121.000,46.000 123.000,47.000 127.000,55.000 127.000,58.000 124.000,60.000 79.000,60.000 76.000,58.000 76.000,55.000 80.000,47.000 82.000,46.000 " />
<polygon stroke="black" stroke-width="1" fill="rgb(204, 204, 204)" fill-opacity="0.25" points="120.000,80.000 125.000,80.000 125.000,78.000 120.000,78.000 " />
<polygon stroke="black" stroke-width="1" fill="rgb(204, 204, 204)" fill-opacity="0.25" points="120.000,80.000 125.000,80.000 125.000,78.000 120.000,78.000 " />
<polygon stroke="black" stroke-width="1" fill="rgb(204, 204, 204)" fill-opacity="0.25" points="120.000,80.000 125.000,80.000 125.000,78.000 120.000,78.000 " />
<polygon stroke="black" stroke-width="1" fill="rgb(204, 204, 204)" fill-opacity="0.25" points="120.000,80.000 125.000,80.000 125.000,78.000 120.000,78.000 " />
<polygon stroke="black" stroke-width="1" fill="rgb(204, 204, 204)" fill-opacity="0.25" points="125.000,69.000 120.000,69.000 120.000,71.000 125.000,71.000 " />
<polygon stroke="black" stroke-width="1" fill="rgb(204, 204, 204)" fill-opacity="0.25" points="125.000,71.000 120.000,71.000 120.000,73.000 125.000,73.000 " />
<polygon stroke="black" stroke-width="1" fill="rgb(204, 204, 204)" fill-opacity="0.25" points="125.000,69.000 120.000,69.000 120.000,71.000 125.000,71.000 " />
<polygon stroke="black" stroke-width="1" fill="rgb(204, 204, 204)" fill-opacity="0.25" points="125.000,71.000 120.000,71.000 120.000,73.000 125.000,73.000 " />
<polygon stroke="black" stroke-width="1" fill="rgb(204, 204, 204)" fill-opacity="0.25" points="125.000,69.000 120.000,69.000 120.000,71.000 125.000,71.000 " />
<polygon stroke="black" stroke-width="1" fill="rgb(204, 204, 204)" fill-opacity="0.25" points="125.000,71.000 120.000,71.000 120.000,73.000 125.000,73.000 " />
<polygon stroke="black" stroke-width="1" fill="rgb(204, 204, 204)" fill-opacity="0.25" points="125.000,69.000 120.000,69.000 120.000,71.000 125.000,71.000 " />
<polygon stroke="black" stroke-width="1" fill="rgb(204, 204, 204)" fill-opacity="0.25" points="125.000,71.000 120.000,71.000 120.000,73.000 125.000,73.000 " />
<polygon stroke="black" stroke-width="1" fill="rgb(204, 204, 204)" fill-opacity="0.25" points="72.000,64.000 72.000,71.000 76.000,71.000 76.000,64.000 " />
<polygon stroke="black" stroke-width="1" fill="rgb(204, 204, 204)" fill-opacity="0.25" points="76.000,64.000 72.000,64.000 72.000,71.000 76.000,71.000 " />
<polygon stroke="black" stroke-width="1" fill="rgb(204, 204, 204)" fill-opacity="0.25" points="72.000,64.000 72.000,71.000 76.000,71.000 76.000,64.000 " />
<polygon stroke="black" stroke-width="1" fill="rgb(204, 204, 204)" fill-opacity="0.25" points="76.000,64.000 72.000,64.000 72.000,71.000 76.000,71.000 " />
<polygon stroke="black" stroke-width="1" fill="rgb(204, 204, 204)" fill-opacity="0.25" points="120.000,89.000 113.000,89.000 113.000,98.000 120.000,98.000 " />
<polygon stroke="black" stroke-width="1" fill="rgb(204, 204, 204)" fill-opacity="0.25" points="120.000,98.000 113.000,98.000 113.000,114.000 120.000,114.000 " />
<polygon stroke="black" stroke-width="1" fill="rgb(204, 204, 204)" fill-opacity="0.25" points="120.000,114.000 113.000,114.000 113.000,123.000 120.000,123.000 " />
<polygon stroke="black" stroke-width="1" fill="rgb(204, 204, 204)" fill-opacity="0.25" points="70.000,79.000 70.000,88.000 73.000,86.000 73.000,79.000 " />
<polygon stroke="black" stroke-width="1" fill="rgb(204, 204, 204)" fill-opacity="0.25" points="122.000,97.000 122.000,88.000 120.000,89.000 120.000,98.000 " />
<polygon stroke="black" stroke-width="1" fill="rgb(204, 204, 204)" fill-opacity="0.25" points="111.000,115.000 111.000,124.000 113.000,123.000 113.000,114.000 " />
<polygon stroke="black" stroke-width="1" fill="rgb(204, 204, 204)" fill-opacity="0.25" points="111.000,88.000 111.000,98.000 113.000,98.000 113.000,89.000 " />
<polygon stroke="black" stroke-width="1" fill="rgb(204, 204, 204)" fill-opacity="0.25" points="70.000,88.000 70.000,79.000 73.000,79.000 73.000,86.000 " />

</svg>
