<?xml version="1.0" standalone="no"?>
<!DOCTYPE svg PUBLIC "-//W3C//DTD SVG 1.1//EN" 
  "http://www.w3.org/Graphics/SVG/1.1/DTD/svg11.dtd">
<svg width="128" height="128" viewBox="0 0 128 128"
     xmlns="http://www.w3.org/2000/svg" version="1.1">
<desc>'truck.blend', Cylinder, (Blender 2.79 (sub 0))</desc>
<polygon stroke="black" stroke-width="1" fill="grey" fill-opacity="0.25" points="111.000,40.000 124.000,40.000 124.000,31.000 111.000,31.000 " />
<polygon stroke="black" stroke-width="1" fill="grey" fill-opacity="0.25" points="111.000,40.000 124.000,40.000 124.000,31.000 111.000,31.000 " />
<polygon stroke="black" stroke-width="1" fill="grey" fill-opacity="0.25" points="111.000,40.000 124.000,40.000 124.000,31.000 111.000,31.000 " />
<polygon stroke="black" stroke-width="1" fill="grey" fill-opacity="0.25" points="111.000,40.000 124.000,40.000 124.000,31.000 111.000,31.000 " />
<polygon stroke="black" stroke-width="1" fill="grey" fill-opacity="0.25" points="111.000,40.000 124.000,40.000 124.000,31.000 111.000,31.000 " />
<polygon stroke="black" stroke-width="1" fill="grey" fill-opacity="0.25" points="124.000,31.000 111.000,31.000 111.000,40.000 124.000,40.000 " />
<polygon stroke="black" stroke-width="1" fill="grey" fill-opacity="0.25" points="104.000,23.000 97.000,16.000 88.000,16.000 81.000,23.000 81.000,33.000 88.000,40.000 97.000,40.000 104.000,33.000 " />
<polygon stroke="black" stroke-width="1" fill="grey" fill-opacity="0.25" points="111.000,40.000 124.000,40.000 124.000,31.000 111.000,31.000 " />
<polygon stroke="black" stroke-width="1" fill="grey" fill-opacity="0.25" points="111.000,40.000 124.000,40.000 124.000,31.000 111.000,31.000 " />
<polygon stroke="black" stroke-width="1" fill="grey" fill-opacity="0.25" points="88.000,40.000 97.000,40.000 104.000,33.000 104.000,23.000 97.000,16.000 88.000,16.000 81.000,23.000 81.000,33.000 " />
<polygon stroke="black" stroke-width="1" fill="grey" fill-opacity="0.25" points="111.000,40.000 124.000,40.000 124.000,31.000 111.000,31.000 " />
<polygon stroke="black" stroke-width="1" fill="grey" fill-opacity="0.25" points="111.000,40.000 124.000,40.000 124.000,31.000 111.000,31.000 " />
<polygon stroke="black" stroke-width="1" fill="grey" fill-opacity="0.25" points="111.000,40.000 124.000,40.000 124.000,31.000 111.000,31.000 " />
<polygon stroke="black" stroke-width="1" fill="grey" fill-opacity="0.25" points="111.000,40.000 124.000,40.000 124.000,31.000 111.000,31.000 " />
<polygon stroke="black" stroke-width="1" fill="grey" fill-opacity="0.25" points="111.000,40.000 124.000,40.000 124.000,31.000 111.000,31.000 " />
<polygon stroke="black" stroke-width="1" fill="grey" fill-opacity="0.25" points="111.000,40.000 124.000,40.000 124.000,31.000 111.000,31.000 " />
<polygon stroke="black" stroke-width="1" fill="grey" fill-opacity="0.25" points="104.000,23.000 97.000,16.000 88.000,16.000 81.000,23.000 81.000,33.000 88.000,40.000 97.000,40.000 104.000,33.000 " />
<polygon stroke="black" stroke-width="1" fill="grey" fill-opacity="0.25" points="124.000,31.000 111.000,31.000 111.000,40.000 124.000,40.000 " />
<polygon stroke="black" stroke-width="1" fill="grey" fill-opacity="0.25" points="124.000,31.000 111.000,31.000 111.000,40.000 124.000,40.000 " />
<polygon stroke="black" stroke-width="1" fill="grey" fill-opacity="0.25" points="88.000,40.000 97.000,40.000 104.000,33.000 104.000,23.000 97.000,16.000 88.000,16.000 81.000,23.000 81.000,33.000 " />

</svg>
